:SAMPLES-PER-SECOND 30
:FULLY-SPECIFIED
:DEGREES
503
root  56.3848 39.0303 0.906632 -121.478 87.8189 -124.518
RightUpLeg  -14.8769 -3.23506 -0.994094
RightLeg  7.20123 14.8421 0.0810621
RightFoot  4.6948 -0.49564 3.74458
RightToes  5.47152e-009 0 -3.6325e-017
Spine  20.4393 -1.86495 10.7251
Spine1  14.2992 3.7619 -12.2697
HEad  -18.6247 8.39309 16.8059
LeftShoulder1  1.10714 -5.29445 -4.70193
LeftArm  -32.7331 -74.25 -20.8769
LeftForeArm  -13.0091 -8.81042 -2.17003
LeftHand  -0.209032 8.4582 -5.80259
RightShoulder  0.599994 1.93091 2.95614
RightArm  -41.678 72.3606 10.2459
RightForeArm  -24.615 -4.67647 -2.03602
RightHand  -0.00563186 -4.62429 3.38202
LeftUpLeg  -17.7863 3.98285 -0.23299
LeftLeg  10.821 -5.94264 -1.49214
LeftFoot  5.71226 -0.721107 4.57407
LeftToes  -4.29285e-010 1.49941e-010 2.15559e-012
504
root  56.3291 39.0235 0.857578 -122.991 87.7348 -126.59
RightUpLeg  -15.3948 -3.54435 -1.03236
RightLeg  6.80848 15.0333 0.0994351
RightFoot  5.09763 -0.521823 3.852
RightToes  5.47152e-009 0 -3.6325e-017
Spine  20.6742 -1.84627 10.6359
Spine1  14.8204 3.73476 -11.9516
HEad  -19.051 7.94216 16.5824
LeftShoulder1  1.02675 -5.34415 -3.59429
LeftArm  -33.2647 -73.6056 -20.6368
LeftForeArm  -15.9117 -11.396 -2.30569
LeftHand  -0.196642 8.39261 -5.49518
RightShoulder  0.50734 1.77487 1.34269
RightArm  -42.1216 69.7539 12.8812
RightForeArm  -24.2745 -2.31905 -3.46139
RightHand  -0.0688195 -6.29756 3.88092
LeftUpLeg  -18.4404 3.82532 -0.332138
LeftLeg  10.63 -5.9861 -1.50994
LeftFoot  6.17413 -0.788333 4.87091
LeftToes  -4.29285e-010 1.49941e-010 2.15559e-012
505
root  56.225 39.0032 0.844973 -118.128 87.5499 -121.988
RightUpLeg  -15.7798 -3.43817 -0.825275
RightLeg  6.60579 14.9887 0.160456
RightFoot  5.54306 -0.53144 3.83621
RightToes  5.47152e-009 0 -3.6325e-017
Spine  21.7399 -1.91314 10.2625
Spine1  14.1373 3.4455 -11.3852
HEad  -18.7155 6.97128 15.9365
LeftShoulder1  1.04054 -5.08075 -4.16923
LeftArm  -33.9755 -72.5789 -21.3279
LeftForeArm  -20.0181 -14.0088 -2.54063
LeftHand  -0.208341 8.68984 -5.27945
RightShoulder  0.473473 1.84389 0.466559
RightArm  -40.6984 67.6276 14.124
RightForeArm  -28.3737 2.16091 -2.75804
RightHand  -0.0967938 -7.17712 3.58226
LeftUpLeg  -19.0758 4.10762 -0.138315
LeftLeg  10.9125 -6.24449 -1.62786
LeftFoot  6.40967 -0.795405 4.84114
LeftToes  -4.29285e-010 1.49941e-010 2.15559e-012
506
root  56.1414 38.9922 0.857798 -108.164 87.7368 -111.97
RightUpLeg  -16.1617 -3.2363 -0.748105
RightLeg  7.04998 15.3239 0.357415
RightFoot  5.84049 -0.50674 3.6177
RightToes  5.47152e-009 0 -3.6325e-017
Spine  21.9752 -1.67277 9.02811
Spine1  15.0568 3.24282 -10.2884
HEad  -18.8376 7.33494 14.2379
LeftShoulder1  0.975204 -4.66487 -3.98066
LeftArm  -37.4056 -70.7176 -21.2485
LeftForeArm  -20.6139 -17.3058 -2.93259
LeftHand  -0.264577 8.98401 -6.58705
RightShoulder  0.455578 1.80058 0.165834
RightArm  -41.1675 65.9004 14.495
RightForeArm  -29.0012 7.95455 -2.45561
RightHand  -0.127784 -8.46225 2.86064
LeftUpLeg  -19.1837 4.90804 -0.0327696
LeftLeg  10.9913 -6.55762 -1.93576
LeftFoot  6.65777 -0.791248 4.73711
LeftToes  -4.29285e-010 1.49941e-010 2.15559e-012
507
root  56.06 38.942 0.893169 -96.6677 87.888 -100.118
RightUpLeg  -16.5269 -2.74572 -0.842332
RightLeg  8.20735 15.1975 0.806415
RightFoot  5.43528 -0.519718 3.7746
RightToes  5.47152e-009 0 -3.6325e-017
Spine  22.346 -1.47646 8.1061
Spine1  15.8398 3.21865 -9.65684
HEad  -18.5343 8.52927 12.1368
LeftShoulder1  0.981962 -4.19575 -4.87422
LeftArm  -40.6953 -69.6688 -19.9951
LeftForeArm  -21.3398 -19.9299 -4.28708
LeftHand  -0.218222 8.55545 -5.93215
RightShoulder  0.397366 1.82611 -1.13544
RightArm  -41.7392 64.1912 15.1122
RightForeArm  -32.9911 12.2128 -1.33392
RightHand  -0.107065 -7.83127 2.79533
LeftUpLeg  -19.3126 5.94604 0.0025679
LeftLeg  11.8258 -7.12589 -2.31883
LeftFoot  6.49394 -0.797088 4.82461
LeftToes  -4.29285e-010 1.49941e-010 2.15559e-012
508
root  55.9362 38.8651 0.949381 -76.4753 88.0961 -79.6066
RightUpLeg  -17.6978 -2.28864 -1.24132
RightLeg  10.609 15.1998 2.02724
RightFoot  5.07277 -0.51752 3.8238
RightToes  5.47152e-009 0 -3.6325e-017
Spine  22.9947 -1.46693 7.48234
Spine1  15.6279 3.52418 -10.668
HEad  -18.0291 9.53614 11.3111
LeftShoulder1  0.876091 -3.76202 -4.10667
LeftArm  -44.1429 -68.1939 -19.9116
LeftForeArm  -19.4845 -22.4868 -5.45565
LeftHand  -0.227261 8.68887 -5.98476
RightShoulder  0.406466 1.8844 -1.04139
RightArm  -45.7456 62.183 16.5903
RightForeArm  -30.2233 16.6272 0.616769
RightHand  -0.151588 -8.46073 3.77883
LeftUpLeg  -19.6438 7.23443 -0.0874858
LeftLeg  12.9393 -7.72218 -2.75099
LeftFoot  6.22811 -0.763508 4.69246
LeftToes  -4.29285e-010 1.49941e-010 2.15559e-012
